<?xml version="1.0" encoding="utf-8"?>
<!-- Generator: Adobe Illustrator 23.0.0, SVG Export Plug-In . SVG Version: 6.00 Build 0)  -->
<svg version="1.1" id="Layer_1"
	xmlns="http://www.w3.org/2000/svg"
	xmlns:xlink="http://www.w3.org/1999/xlink" x="0px" y="0px" viewBox="0 0 960.3 104" style="enable-background:new 0 0 960.3 104;" xml:space="preserve">
	<style type="text/css">
	.st0{fill:#FFFFFF;}
	.st1{fill:#9FBBF4;}
	</style>
	<g>
		<path class="st0" d="M51.2,103.3c-9.5,0-18.1-1.9-25.9-5.7c-7.8-3.8-14-9.4-18.6-17C2.1,73.1-0.1,63.7,0,52.4
		c0.1-11,2.4-20.4,7-28.3c4.5-7.9,10.7-13.8,18.5-18C33.3,2.1,42.1,0,51.7,0c10,0,18.5,1.8,25.3,5.4c6.8,3.6,12.2,8.3,16,14.2
		c3.8,5.8,6.3,12.1,7.4,18.9H74.9c-0.6-4.5-2.3-7.8-5-9.9c-2.8-2.1-5.8-3.5-9.2-4.2c-3.4-0.6-6.4-1-8.9-1c-9.2,0-16.1,2.4-20.6,7.2
		c-4.5,4.8-6.7,11.4-6.7,19.9c0,9.3,2.2,16.6,6.6,21.8c4.4,5.2,11.2,7.8,20.6,7.8c2.7,0,5.8-0.4,9.2-1.2c3.4-0.8,6.5-2.3,9.3-4.7
		c2.8-2.4,4.5-5.9,5-10.6h25.7c-1.2,7-3.7,13.5-7.6,19.6c-3.9,6.1-9.3,11-16.2,14.6C70.1,101.5,61.5,103.3,51.2,103.3z"/>
		<path class="st1" d="M158.7,104c-16.5,0-29.2-4.7-37.9-14.1c-8.7-9.4-13.1-22.1-13.1-38c0-10.5,1.9-19.6,5.7-27.4
		c3.8-7.7,9.4-13.8,17-18.1c7.6-4.3,17-6.5,28.3-6.5c16.5,0,29.1,4.7,37.7,14.1c8.6,9.4,12.9,22,12.9,37.8c0,10.3-1.9,19.3-5.8,27.2
		c-3.8,7.9-9.5,14-17,18.3C179.1,101.8,169.8,104,158.7,104z"/>
		<path class="st0" d="M290.9,1.8h25.9v99.7h-47.5l-18.6-88.9h-0.4v88.9h-25.7V1.8h43.9l22,88.9h0.4V1.8z"/>
		<path class="st0" d="M328.3,22.9V1.8h78.8v21.1H328.3z M380,5v96.6h-24.8V5H380z"/>
		<path class="st0" d="M408.6,101.5l28.7-99.7h40.6l29.8,99.7h-26.4L458,12l-22.9,89.5H408.6z M432.5,76.5l-0.9-18.8h52.3l-0.7,18.8
		H432.5z"/>
		<path class="st0" d="M563.8,103.3c-9.5,0-18.1-1.9-25.9-5.7c-7.8-3.8-14-9.4-18.6-17c-4.6-7.6-6.9-16.9-6.7-28.2
		c0.1-11,2.4-20.4,7-28.3c4.5-7.9,10.7-13.8,18.5-18c7.8-4.1,16.5-6.2,26.2-6.2c10,0,18.5,1.8,25.3,5.4c6.8,3.6,12.2,8.3,16,14.2
		c3.8,5.8,6.3,12.1,7.4,18.9h-25.5c-0.6-4.5-2.3-7.8-5-9.9c-2.8-2.1-5.8-3.5-9.2-4.2c-3.4-0.6-6.4-1-8.9-1c-9.2,0-16.1,2.4-20.6,7.2
		c-4.5,4.8-6.7,11.4-6.7,19.9c0,9.3,2.2,16.6,6.6,21.8c4.4,5.2,11.2,7.8,20.6,7.8c2.7,0,5.8-0.4,9.2-1.2c3.4-0.8,6.5-2.3,9.3-4.7
		c2.8-2.4,4.5-5.9,5-10.6h25.7c-1.2,7-3.7,13.5-7.6,19.6c-3.9,6.1-9.3,11-16.2,14.6C582.6,101.5,574,103.3,563.8,103.3z"/>
		<path class="st0" d="M619.6,22.9V1.8h78.8v21.1H619.6z M671.3,5v96.6h-24.8V5H671.3z"/>
		<path class="st0" d="M748.9,101.5V1.8h43.1l14.7,89.5h0.4l14.4-89.5h42.9v99.7h-25.7l1.8-89.3h-0.2l-15.6,89.3h-36l-15.2-89.3H773
		l1.6,89.3H748.9z"/>
		<path class="st0" d="M882.8,101.5V1.8h75.5v21.1h-51.2v18.2h38.1v19.8h-38.1v20.9h53.2v19.7H882.8z"/>
	</g>
</svg>
